<?xml version="1.0" encoding="utf-8"?>
<!-- Generator: Adobe Illustrator 23.0.6, SVG Export Plug-In . SVG Version: 6.00 Build 0)  -->
<svg version="1.1" id="Layer_1" xmlns="http://www.w3.org/2000/svg" xmlns:xlink="http://www.w3.org/1999/xlink" x="0px" y="0px"
	 viewBox="0 0 868.6 701" style="enable-background:new 0 0 868.6 701;" xml:space="preserve">
<style type="text/css">
	.st0{clip-path:url(#SVGID_2_);}
	.st1{fill:#F5F5F5;}
	.st2{fill:url(#SVGID_3_);}
	.st3{fill:#FF5252;}
	.st4{fill:#FFFF00;}
	.st5{fill:#69F0AE;}
	.st6{fill:url(#SVGID_4_);}
	.st7{fill:#078080;}
	.st8{fill:url(#SVGID_5_);}
	.st9{fill:#6C63FF;}
	.st10{opacity:0.4;fill:#078080;enable-background:new    ;}
	.st11{fill:url(#SVGID_6_);}
	.st12{fill:url(#SVGID_7_);}
	.st13{fill:url(#SVGID_8_);}
	.st14{fill:#F45D48;}
	.st15{fill:#FF9800;}
	.st16{opacity:0.4;fill:#6C63FF;enable-background:new    ;}
	.st17{fill:url(#SVGID_9_);}
	.st18{fill:#FFFFFF;}
	.st19{fill:url(#SVGID_10_);}
	.st20{fill:url(#SVGID_11_);}
	.st21{fill:url(#SVGID_12_);}
	.st22{fill:url(#SVGID_13_);}
	.st23{fill:url(#SVGID_14_);}
	.st24{opacity:0.2;enable-background:new    ;}
</style>
<g>
	<defs>
		
			<rect id="SVGID_1_" x="11.3" y="103.4" transform="matrix(0.866 -0.5 0.5 0.866 -115.3528 266.2122)" width="855.7" height="489.8"/>
	</defs>
	<clipPath id="SVGID_2_">
		<use xlink:href="#SVGID_1_"  style="overflow:visible;"/>
	</clipPath>
	<g class="st0">
		<path class="st1" d="M315.8,190l6.8,17.5L740.8,43.3L734,25.8L315.8,190z"/>
		
			<linearGradient id="SVGID_3_" gradientUnits="userSpaceOnUse" x1="652.9916" y1="390.7773" x2="522.8804" y2="722.141" gradientTransform="matrix(1 0 0 -1 0 824.0486)">
			<stop  offset="0" style="stop-color:#808080;stop-opacity:0.25"/>
			<stop  offset="0.54" style="stop-color:#808080;stop-opacity:0.12"/>
			<stop  offset="1" style="stop-color:#808080;stop-opacity:0.1"/>
		</linearGradient>
		<path class="st2" d="M305.4,187.3L434.6,519l435.9-171.2L741.3,16.2L305.4,187.3z"/>
		<path class="st1" d="M322.6,207.5L440.4,510l418.2-164.2L740.8,43.3L322.6,207.5z"/>
		<path class="st3" d="M333.7,193c-0.9-2.4-3.6-3.5-6-2.6c-2.4,0.9-3.6,3.6-2.7,6c0.9,2.4,3.6,3.5,6,2.6
			C333.5,198.1,334.6,195.4,333.7,193z"/>
		<path class="st4" d="M345.6,188.4c-0.9-2.4-3.6-3.5-6-2.6c-2.4,0.9-3.6,3.6-2.7,6c0.9,2.4,3.6,3.5,6,2.6
			C345.3,193.4,346.5,190.7,345.6,188.4z"/>
		<path class="st5" d="M357.5,183.7c-0.9-2.4-3.6-3.5-6-2.6c-2.4,0.9-3.6,3.6-2.7,6c0.9,2.4,3.6,3.5,6,2.6
			C357.2,188.7,358.4,186.1,357.5,183.7z"/>
		
			<linearGradient id="SVGID_4_" gradientUnits="userSpaceOnUse" x1="65697.3516" y1="-165270.2188" x2="47539.3438" y2="-119027.2109" gradientTransform="matrix(1 0 0 -1 0 824.0486)">
			<stop  offset="0" style="stop-color:#808080;stop-opacity:0.25"/>
			<stop  offset="0.54" style="stop-color:#808080;stop-opacity:0.12"/>
			<stop  offset="1" style="stop-color:#808080;stop-opacity:0.1"/>
		</linearGradient>
		<path class="st6" d="M350.8,227.6l42.7,109.6L769,189.8L726.3,80.2L350.8,227.6z"/>
		<path class="st7" d="M724.4,86L356.9,230.2l39.6,101.6l367.4-144.3L724.4,86z"/>
		
			<linearGradient id="SVGID_5_" gradientUnits="userSpaceOnUse" x1="5527.4678" y1="-12366.041" x2="5293.4678" y2="-11769.9805" gradientTransform="matrix(1 0 0 -1 0 824.0486)">
			<stop  offset="0" style="stop-color:#808080;stop-opacity:0.25"/>
			<stop  offset="0.54" style="stop-color:#808080;stop-opacity:0.12"/>
			<stop  offset="1" style="stop-color:#808080;stop-opacity:0.1"/>
		</linearGradient>
		<path class="st8" d="M474.1,354.4l8.3,21.2l25-9.8l-8.3-21.2L474.1,354.4z"/>
		<path class="st9" d="M499.3,346.2l-23.6,9.3l6.8,17.5l23.6-9.3L499.3,346.2z"/>
		<path class="st3" d="M511,376.1l-23.6,9.3l6.8,17.5l23.6-9.3L511,376.1z"/>
		<path class="st7" d="M522.6,406.1l-23.6,9.3l6.8,17.5l23.6-9.3L522.6,406.1z"/>
		<path class="st10" d="M729.7,259.9l-190,74.6l4,10.2l190-74.6L729.7,259.9z"/>
		<path class="st10" d="M741.4,289.9l-190,74.6l4,10.2l190-74.6L741.4,289.9z"/>
		<path class="st10" d="M753.1,319.8l-190,74.6l4,10.2l190-74.6L753.1,319.8z"/>
		<path class="st1" d="M363.7,118.8L11,441.8l12.6,13.6l352.7-323L363.7,118.8z"/>
		
			<linearGradient id="SVGID_6_" gradientUnits="userSpaceOnUse" x1="143429.9375" y1="-155837.5469" x2="55861.7773" y2="-60235.957" gradientTransform="matrix(1 0 0 -1 0 824.0486)">
			<stop  offset="0" style="stop-color:#808080;stop-opacity:0.25"/>
			<stop  offset="0.54" style="stop-color:#808080;stop-opacity:0.12"/>
			<stop  offset="1" style="stop-color:#808080;stop-opacity:0.1"/>
		</linearGradient>
		<path class="st11" d="M367.6,106.8L0,443.5L237.7,701l367.6-336.7L367.6,106.8z"/>
		<path class="st1" d="M376.3,132.4l-352.7,323l216.7,234.8l352.7-323L376.3,132.4z"/>
		<path class="st3" d="M29,444c2-1.8,2.3-4.8,0.6-6.7c-1.7-1.8-4.7-1.8-6.7,0c-2,1.8-2.3,4.8-0.6,6.7C24,445.9,27,445.9,29,444z"/>
		<path class="st4" d="M39,434.9c2-1.8,2.3-4.8,0.6-6.7c-1.7-1.8-4.7-1.8-6.7,0c-2,1.8-2.3,4.8-0.6,6.7C34,436.7,37,436.7,39,434.9z
			"/>
		<path class="st5" d="M49,425.7c2-1.8,2.3-4.8,0.6-6.7c-1.7-1.8-4.7-1.8-6.7,0c-2,1.8-2.3,4.8-0.6,6.7C44,427.5,47,427.5,49,425.7z
			"/>
		
			<linearGradient id="SVGID_7_" gradientUnits="userSpaceOnUse" x1="32578.1328" y1="-34822.707" x2="23018.1328" y2="-24386.1035" gradientTransform="matrix(1 0 0 -1 0 824.0486)">
			<stop  offset="0" style="stop-color:#808080;stop-opacity:0.25"/>
			<stop  offset="0.54" style="stop-color:#808080;stop-opacity:0.12"/>
			<stop  offset="1" style="stop-color:#808080;stop-opacity:0.1"/>
		</linearGradient>
		<path class="st12" d="M374.5,172.7l-316.7,290l78.5,85.1l316.7-290L374.5,172.7z"/>
		<path class="st7" d="M374.6,178.9L64.7,462.7l72.8,78.8l309.8-283.8L374.6,178.9z"/>
		
			<linearGradient id="SVGID_8_" gradientUnits="userSpaceOnUse" x1="7578.9604" y1="-7719.9507" x2="7221.8608" y2="-7330.0513" gradientTransform="matrix(1 0 0 -1 0 824.0486)">
			<stop  offset="0" style="stop-color:#808080;stop-opacity:0.25"/>
			<stop  offset="0.54" style="stop-color:#808080;stop-opacity:0.12"/>
			<stop  offset="1" style="stop-color:#808080;stop-opacity:0.1"/>
		</linearGradient>
		<path class="st13" d="M241.9,511.9l-21.1,19.3l15.2,16.4l21.1-19.3L241.9,511.9z"/>
		<path class="st7" d="M245.2,513.3l-19.9,18.3l12.6,13.7l19.9-18.3L245.2,513.3z"/>
		<path class="st14" d="M264.1,536.5l-19.9,18.2l12.6,13.6l19.9-18.2L264.1,536.5z"/>
		<path class="st15" d="M288.4,560l-19.9,18.3l12.6,13.7l19.9-18.3L288.4,560z"/>
		<path class="st16" d="M438.3,339.3L278.1,486l7.3,7.9l160.2-146.7L438.3,339.3z"/>
		<path class="st16" d="M459.8,362.5L299.6,509.2l7.3,7.9l160.2-146.7L459.8,362.5z"/>
		<path class="st16" d="M481.3,385.8L321.1,532.5l7.3,7.9l160.2-146.7L481.3,385.8z"/>
		<path class="st1" d="M565.5,12.8L95.6,284.1l11.4,19.7L576.8,32.4L565.5,12.8z"/>
		
			<linearGradient id="SVGID_9_" gradientUnits="userSpaceOnUse" x1="100133.0859" y1="-172186" x2="2579.1592" y2="-3217.2256" gradientTransform="matrix(1 0 0 -1 0 824.0486)">
			<stop  offset="0" style="stop-color:#808080;stop-opacity:0.25"/>
			<stop  offset="0.54" style="stop-color:#808080;stop-opacity:0.12"/>
			<stop  offset="1" style="stop-color:#808080;stop-opacity:0.1"/>
		</linearGradient>
		<path class="st17" d="M572.5,0L82.7,282.8l214.9,372.2l489.8-282.8L572.5,0z"/>
		<path class="st18" d="M576.8,32.4L106.9,303.8l195.9,339.4l469.9-271.3L576.8,32.4z"/>
		<path class="st3" d="M115.5,292.1c2.7-1.5,3.6-5,2.1-7.6c-1.5-2.7-5-3.6-7.6-2c-2.7,1.5-3.6,5-2.1,7.6
			C109.4,292.7,112.8,293.6,115.5,292.1z"/>
		<path class="st4" d="M128.8,284.4c2.7-1.5,3.6-5,2.1-7.6c-1.5-2.7-5-3.6-7.6-2c-2.7,1.5-3.6,5-2.1,7.6
			C122.7,285,126.2,285.9,128.8,284.4z"/>
		<path class="st5" d="M142.2,276.7c2.7-1.5,3.6-5,2.1-7.6c-1.5-2.7-5-3.6-7.6-2s-3.6,5-2.1,7.6
			C136.1,277.3,139.5,278.2,142.2,276.7z"/>
		
			<linearGradient id="SVGID_10_" gradientUnits="userSpaceOnUse" x1="16646.1895" y1="-27593.9336" x2="5997.1904" y2="-9149.0361" gradientTransform="matrix(1 0 0 -1 0 824.0486)">
			<stop  offset="0" style="stop-color:#808080;stop-opacity:0.25"/>
			<stop  offset="0.54" style="stop-color:#808080;stop-opacity:0.12"/>
			<stop  offset="1" style="stop-color:#808080;stop-opacity:0.1"/>
		</linearGradient>
		<path class="st19" d="M566.2,79L144.3,322.6l71,123L637.2,202L566.2,79z"/>
		<path class="st7" d="M564.9,86.3L152.1,324.7l65.8,113.9l412.8-238.3L564.9,86.3z"/>
		
			<linearGradient id="SVGID_11_" gradientUnits="userSpaceOnUse" x1="4673.436" y1="-7143.4863" x2="4275.3276" y2="-6454.042" gradientTransform="matrix(1 0 0 -1 0 824.0486)">
			<stop  offset="0" style="stop-color:#808080;stop-opacity:0.25"/>
			<stop  offset="0.54" style="stop-color:#808080;stop-opacity:0.12"/>
			<stop  offset="1" style="stop-color:#808080;stop-opacity:0.1"/>
		</linearGradient>
		<path class="st20" d="M342.8,435.3l-28.1,16.2l13.7,23.8l28.1-16.2L342.8,435.3z"/>
		<path class="st7" d="M343.4,437.2l-26.5,15.3l11.4,19.7l26.5-15.3L343.4,437.2z"/>
		<path class="st14" d="M362.8,470.8l-26.5,15.3l11.4,19.7l26.5-15.3L362.8,470.8z"/>
		<path class="st15" d="M382.2,504.4l-26.5,15.3l11.4,19.7l26.5-15.3L382.2,504.4z"/>
		<path class="st10" d="M603,292.8L389.6,416l6.6,11.5l213.4-123.2L603,292.8z"/>
		<path class="st10" d="M622.4,326.4L409,449.6l6.6,11.5l213.5-123.2L622.4,326.4z"/>
		<path class="st10" d="M641.8,360L428.4,483.2l6.6,11.5l213.4-123.2L641.8,360z"/>
		
			<linearGradient id="SVGID_12_" gradientUnits="userSpaceOnUse" x1="37970.668" y1="-64512.0273" x2="26891.0449" y2="-45321.9297" gradientTransform="matrix(1 0 0 -1 0 824.0486)">
			<stop  offset="0" style="stop-color:#808080;stop-opacity:0.25"/>
			<stop  offset="0.54" style="stop-color:#808080;stop-opacity:0.12"/>
			<stop  offset="1" style="stop-color:#808080;stop-opacity:0.1"/>
		</linearGradient>
		<path class="st21" d="M573.7,386.2l-153.9,88.8l72.4,125.4l153.9-88.8L573.7,386.2z"/>
		
			<linearGradient id="SVGID_13_" gradientUnits="userSpaceOnUse" x1="27402.0996" y1="-46204.2148" x2="22630.5078" y2="-37939.5664" gradientTransform="matrix(1 0 0 -1 0 824.0486)">
			<stop  offset="0" style="stop-color:#808080;stop-opacity:0.25"/>
			<stop  offset="0.54" style="stop-color:#808080;stop-opacity:0.12"/>
			<stop  offset="1" style="stop-color:#808080;stop-opacity:0.1"/>
		</linearGradient>
		<path class="st22" d="M443.8,434.6c-6.5-11.3-8.3-24.8-4.8-37.5c3.5-12.7,11.8-23.5,23.3-30.1c11.4-6.6,25-8.4,37.7-5.1
			c12.7,3.3,23.5,11.6,30.1,22.9l15.8,27.3l12.1-7l-15.8-27.3c-4.1-7.3-9.6-13.7-16.2-18.8c-6.6-5.1-14.2-8.9-22.3-11.1
			c-8.1-2.2-16.6-2.7-24.9-1.6c-8.3,1.1-16.4,3.8-23.7,8.1c-7.3,4.2-13.7,9.8-18.8,16.5c-5.1,6.7-8.9,14.3-11,22.4
			c-2.2,8.1-2.7,16.5-1.5,24.8s3.9,16.3,8.2,23.4l15.8,27.3l12.1-7L443.8,434.6z"/>
		<path class="st18" d="M445.2,433.1c-6.3-10.9-7.9-23.8-4.6-36c3.3-12.2,11.3-22.6,22.3-28.9c11-6.3,24-8.1,36.2-4.9
			s22.6,11.1,28.8,22l15.1,26.2l11.6-6.7l-15.1-26.2c-8-13.9-21.3-24-36.9-28.1c-15.6-4.1-32.3-1.9-46.3,6.3s-24.3,21.4-28.6,37
			c-4.3,15.6-2.1,32.1,5.9,46.1l15.1,26.2l11.6-6.7L445.2,433.1z"/>
		<path class="st9" d="M572.8,392.2l-144,83.1L496,591.7l144-83.1L572.8,392.2z"/>
		<path class="st18" d="M572.8,392.2l-144,83.1L496,591.7l144-83.1L572.8,392.2z"/>
		<path class="st7" d="M586,415.2l-144,83.1l40.7,70.5l144-83.1L586,415.2z"/>
		
			<linearGradient id="SVGID_14_" gradientUnits="userSpaceOnUse" x1="18677.1309" y1="-31092.6973" x2="17083.3457" y2="-28332.125" gradientTransform="matrix(1 0 0 -1 0 824.0486)">
			<stop  offset="0" style="stop-color:#808080;stop-opacity:0.25"/>
			<stop  offset="0.54" style="stop-color:#808080;stop-opacity:0.12"/>
			<stop  offset="1" style="stop-color:#808080;stop-opacity:0.1"/>
		</linearGradient>
		<path class="st23" d="M537.3,472.6c-1-1.7-2.4-3.2-4-4.2c-1.7-1.1-3.6-1.7-5.6-1.8c-2-0.1-4,0.2-5.8,1c-1.8,0.8-3.4,2-4.7,3.6
			c-1.2,1.6-2.1,3.4-2.4,5.3c-0.4,2-0.2,4,0.4,5.8c0.6,1.9,1.6,3.6,3.1,5c1.4,1.4,3.2,2.4,5.1,2.9l12.9,22.3c1.2,2,3.1,3.5,5.4,4.1
			c2.3,0.6,4.7,0.3,6.7-0.9c2-1.2,3.5-3.1,4.1-5.4c0.6-2.3,0.3-4.7-0.9-6.7l-12.9-22.3C539.3,478.4,538.8,475.2,537.3,472.6z"/>
		<path class="st24" d="M536.9,475.2c-0.8-1.5-2-2.7-3.5-3.6c-1.4-0.9-3.1-1.4-4.8-1.6c-1.7-0.1-3.4,0.2-5,0.9c-1.6,0.7-3,1.8-4,3.1
			c-1.1,1.3-1.8,2.9-2.1,4.6c-0.3,1.7-0.2,3.4,0.3,5c0.5,1.6,1.4,3.1,2.6,4.3c1.2,1.2,2.7,2.1,4.3,2.5l11.1,19.2
			c1,1.7,2.7,3,4.6,3.5c2,0.5,4,0.2,5.8-0.8c1.8-1,3-2.7,3.6-4.6c0.5-1.9,0.3-4-0.7-5.8l-11.1-19.2
			C538.6,480.3,538.2,477.5,536.9,475.2z"/>
	</g>
</g>
</svg>
